#!OML:ASF H:\MichaelJackson\Top Level 1\Subject 1\Session 1\male.ASF
:FULLY-SPECIFIED
:DEGREES
442
root 1.48949 15.2316 -9.1147 5.49212 4.83139 -13.5423
lowerback 6.02945 1.6015 4.3986
upperback 1.01281 2.43843 0.924751
thorax -2.1908 1.18676 -1.7001
lowerneck -7.15866 0.0337935 5.62298
upperneck 0.687406 -0.434285 0.0690367
head 1.41974 -0.189785 -0.949097
rclavicle 2.90226e-014 6.36111e-015
rhumerus -48.3514 -2.52445 -89.7222
rradius 66.3347
rwrist 12.906
rhand -30.9208 -29.1118
rfingers 7.12502
rthumb -4.20662 -779.05
lclavicle 2.90226e-014 6.36111e-015
lhumerus -39.6318 -28.4329 97.6213
lradius 54.1431
lwrist 7.92235
lhand -20.0855 -1.30814
lfingers 7.12502
lthumb 6.25724 28.5794
rfemur -14.9411 -3.44768 8.90199
rtibia 38.8284
rfoot -14.6389 -13.9723
rtoes -49.791
lfemur -46.8501 16.8114 3.9745
ltibia 62.9553
lfoot -24.9916 -10.2701
ltoes -12.7255
443
root 1.45245 15.2372 -9.06801 5.60654 6.5969 -13.6705
lowerback 5.92426 1.56963 4.53097
upperback 0.981614 2.40111 0.96226
thorax -2.1627 1.16776 -1.72962
lowerneck -7.14905 -0.14261 5.43449
upperneck 0.446603 -0.647638 0.0712794
head 1.33378 -0.301789 -0.920843
rclavicle 1.98785e-014 3.02153e-014
rhumerus -48.1617 -2.33166 -89.6325
rradius 66.2084
rwrist 12.7596
rhand -29.9274 -28.4828
rfingers 7.12502
rthumb -3.24737 -778.438
lclavicle 1.98785e-014 3.02153e-014
lhumerus -39.5735 -27.9646 97.7706
lradius 54.2669
lwrist 7.60621
lhand -20.9924 -1.89459
lfingers 7.12502
lthumb 5.38171 28.0171
rfemur -14.2672 -4.19766 9.25224
rtibia 38.6613
rfoot -14.6144 -14.6178
rtoes -49.8851
lfemur -48.2059 17.8458 2.99455
ltibia 63.2311
lfoot -23.8646 -9.68349
ltoes -11.2689
444
root 1.42629 15.2461 -9.01784 5.71249 8.43026 -13.8342
lowerback 5.76044 1.51003 4.74703
upperback 0.94255 2.32922 1.02405
thorax -2.10994 1.1315 -1.77669
lowerneck -7.13602 -0.318994 5.25211
upperneck 0.257014 -0.862405 0.0696295
head 1.2644 -0.413271 -0.895071
rclavicle 5.725e-014 -3.33958e-014
rhumerus -48.0228 -2.15337 -89.4677
rradius 66.1105
rwrist 12.6154
rhand -28.992 -27.7771
rfingers 7.12502
rthumb -2.34397 -777.744
lclavicle 5.725e-014 -3.33958e-014
lhumerus -39.5843 -27.4845 97.985
lradius 54.3431
lwrist 7.25538
lhand -22.0029 -2.56626
lfingers 7.12502
lthumb 4.40597 27.3679
rfemur -13.5585 -4.9404 9.61937
rtibia 38.4306
rfoot -14.4756 -15.1671
rtoes -50.0016
lfemur -49.5926 18.8047 1.91522
ltibia 63.4943
lfoot -22.7935 -9.08007
ltoes -9.65575
445
root 1.41105 15.2588 -8.96419 5.79493 10.3047 -14.0253
lowerback 5.55158 1.43374 5.02452
upperback 0.896345 2.23598 1.10789
thorax -2.03968 1.08462 -1.83283
lowerneck -7.12366 -0.497229 5.0755
upperneck 0.120347 -1.08139 0.0689372
head 1.21259 -0.525605 -0.870373
rclavicle 3.02153e-014 -2.22639e-014
rhumerus -47.9418 -2.00505 -89.2269
rradius 66.0292
rwrist 12.478
rhand -28.1649 -27.0233
rfingers 7.12502
rthumb -1.54522 -776.997
lclavicle 3.02153e-014 -2.22639e-014
lhumerus -39.664 -27.0094 98.2635
lradius 54.3671
lwrist 6.87367
lhand -23.0795 -3.31182
lfingers 7.12502
lthumb 3.36633 26.6414
rfemur -12.809 -5.70609 10.0034
rtibia 38.1327
rfoot -14.2052 -15.6333
rtoes -50.1374
lfemur -50.9628 19.6983 0.742137
ltibia 63.7237
lfoot -21.8201 -8.46198
ltoes -7.97512
446
root 1.40651 15.2758 -8.90713 5.84015 12.1913 -14.2303
lowerback 5.31402 1.35161 5.33376
upperback 0.844701 2.13422 1.20994
thorax -1.95969 1.03359 -1.88704
lowerneck -7.11448 -0.678064 4.90344
upperneck 0.0342959 -1.30559 0.07302
head 1.17793 -0.639369 -0.84544
rclavicle 7.15625e-015 3.33958e-014
rhumerus -47.9247 -1.89608 -88.9136
rradius 65.9544
rwrist 12.3462
rhand -27.4872 -26.2613
rfingers 7.12502
rthumb -0.89061 -776.239
lclavicle 7.15625e-015 3.33958e-014
lhumerus -39.8099 -26.5496 98.6011
lradius 54.3379
lwrist 6.46492
lhand -24.1752 -4.11438
lfingers 7.12502
lthumb 2.30812 25.8529
rfemur -12.0071 -6.49522 10.394
rtibia 37.7577
rfoot -13.7854 -16.0373
rtoes -50.2903
lfemur -52.2685 20.5443 -0.524321
ltibia 63.9002
lfoot -20.9671 -7.80496
ltoes -6.31864
447
root 1.41225 15.2975 -8.84673 5.83691 14.0653 -14.4343
lowerback 5.06389 1.27284 5.64376
upperback 0.790007 2.03486 1.32545
thorax -1.87677 0.983942 -1.92817
lowerneck -7.10882 -0.861979 4.73611
upperneck -0.00717536 -1.53552 0.0834121
head 1.15847 -0.754987 -0.819864
rclavicle -7.03698e-014 -3.49861e-014
rhumerus -47.9762 -1.83263 -88.5344
rradius 65.8792
rwrist 12.2107
rhand -26.991 -25.537
rfingers 7.12502
rthumb -0.411439 -775.516
lclavicle -7.03698e-014 -3.49861e-014
lhumerus -40.018 -26.1116 98.9901
lradius 54.258
lwrist 6.03232
lhand -25.2346 -4.95273
lfingers 7.12502
lthumb 1.28498 25.0231
rfemur -11.137 -7.2818 10.7758
rtibia 37.2938
rfoot -13.2006 -16.4043
rtoes -50.4582
lfemur -53.4658 21.3619 -1.88357
ltibia 64.0084
lfoot -20.2427 -7.07451
ltoes -4.75631
448
root 1.42778 15.3239 -8.78308 5.78012 15.9072 -14.6243
lowerback 4.81267 1.20419 5.92839
upperback 0.734039 1.94609 1.44996
thorax -1.7955 0.939814 -1.94704
lowerneck -7.10647 -1.04884 4.57508
upperneck -0.011004 -1.7709 0.0989646
head 1.15193 -0.872538 -0.794278
rclavicle -2.78299e-014 -2.38542e-014
rhumerus -48.0992 -1.81614 -88.0981
rradius 65.7987
rwrist 12.0573
rhand -26.6946 -24.8987
rfingers 7.12502
rthumb -0.125113 -774.878
lclavicle -2.78299e-014 -2.38542e-014
lhumerus -40.2838 -25.6982 99.421
lradius 54.1328
lwrist 5.57742
lhand -26.2061 -5.80887
lfingers 7.12502
lthumb 0.346685 24.1706
rfemur -10.1867 -8.0207 11.134
rtibia 36.7322
rfoot -12.4391 -16.7567
rtoes -50.6374
lfemur -54.5209 22.1676 -3.32973
ltibia 64.0383
lfoot -19.6463 -6.24477
ltoes -3.31066
449
root 1.45263 15.3551 -8.71627 5.67006 17.7071 -14.7905
lowerback 4.5658 1.14909 6.16757
upperback 0.67789 1.87199 1.58027
thorax -1.71777 0.903305 -1.93599
lowerneck -7.10638 -1.23843 4.4223
upperneck 0.016077 -2.01132 0.116996
head 1.15595 -0.992036 -0.769832
rclavicle 6.44062e-014 -3.81667e-014
rhumerus -48.294 -1.84376 -87.6136
rradius 65.7085
rwrist 11.8692
rhand -26.6025 -24.3915
rfingers 7.12502
rthumb -0.0361369 -774.371
lclavicle 6.44062e-014 -3.81667e-014
lhumerus -40.602 -25.309 99.8841
lradius 53.9686
lwrist 5.0997
lhand -27.0448 -6.66326
lfingers 7.12502
lthumb -0.463321 23.316
rfemur -9.15076 -8.65814 11.4583
rtibia 36.0731
rfoot -11.4916 -17.1135
rtoes -50.8228
lfemur -55.4108 22.9688 -4.84807
ltibia 63.9848
lfoot -19.1763 -5.31246
ltoes -1.97034
450
root 1.48639 15.3905 -8.64639 5.51233 19.4647 -14.9269
lowerback 4.32234 1.10776 6.34981
upperback 0.621295 1.81257 1.71361
thorax -1.64333 0.87445 -1.89139
lowerneck -7.10824 -1.43065 4.27999
upperneck 0.0698306 -2.25666 0.134629
head 1.16907 -1.11357 -0.747806
rclavicle 2.18663e-014 -3.81667e-014
rhumerus -48.5583 -1.91018 -87.0905
rradius 65.6034
rwrist 11.632
rhand -26.7028 -24.0527
rfingers 7.12502
rthumb -0.133035 -774.032
lclavicle 2.18663e-014 -3.81667e-014
lhumerus -40.9678 -24.9439 100.369
lradius 53.7723
lwrist 4.59956
lhand -27.7143 -7.49906
lfingers 7.12502
lthumb -1.10998 22.4778
rfemur -8.03564 -9.14208 11.7454
rtibia 35.3299
rfoot -10.3485 -17.49
rtoes -51.0079
lfemur -56.1235 23.7595 -6.41326
ltibia 63.8475
lfoot -18.8332 -4.30739
ltoes -0.695527
451
root 1.52878 15.4297 -8.57365 5.31707 21.1891 -15.0301
lowerback 4.07634 1.07726 6.47106
upperback 0.562554 1.76371 1.84745
thorax -1.57075 0.851198 -1.81315
lowerneck -7.11282 -1.62543 4.14912
upperneck 0.1487 -2.50687 0.150798
head 1.19088 -1.23719 -0.72874
rclavicle 3.47873e-014 -3.97569e-014
rhumerus -48.8867 -2.00878 -86.5378
rradius 65.4766
rwrist 11.3388
rhand -26.973 -23.9043
rfingers 7.12502
rthumb -0.393985 -773.884
lclavicle 3.47873e-014 -3.97569e-014
lhumerus -41.3753 -24.6035 100.867
lradius 53.5492
lwrist 4.08042
lhand -28.1931 -8.30027
lfingers 7.12502
lthumb -1.57244 21.6737
rfemur -6.86132 -9.43131 11.999
rtibia 34.5308
rfoot -8.99715 -17.8979
rtoes -51.1845
lfemur -56.656 24.5169 -7.99061
ltibia 63.6286
lfoot -18.6182 -3.29208
ltoes 0.564725
